<svg width="157" height="64" viewBox="0 0 157 64" fill="none" xmlns="http://www.w3.org/2000/svg">
<path d="M77.2642 29V14.4545H86.8949V16.9901H80.3395V20.456H86.2557V22.9915H80.3395V29H77.2642ZM93.0348 29.2131C91.9316 29.2131 90.9775 28.9787 90.1726 28.5099C89.3724 28.0365 88.7545 27.3783 88.3189 26.5355C87.8833 25.688 87.6655 24.7055 87.6655 23.5881C87.6655 22.4612 87.8833 21.4763 88.3189 20.6335C88.7545 19.786 89.3724 19.1278 90.1726 18.6591C90.9775 18.1856 91.9316 17.9489 93.0348 17.9489C94.138 17.9489 95.0897 18.1856 95.8899 18.6591C96.6948 19.1278 97.3151 19.786 97.7507 20.6335C98.1863 21.4763 98.4041 22.4612 98.4041 23.5881C98.4041 24.7055 98.1863 25.688 97.7507 26.5355C97.3151 27.3783 96.6948 28.0365 95.8899 28.5099C95.0897 28.9787 94.138 29.2131 93.0348 29.2131ZM93.049 26.8693C93.5509 26.8693 93.9699 26.7273 94.3061 26.4432C94.6423 26.1544 94.8956 25.7614 95.0661 25.2642C95.2412 24.767 95.3288 24.2012 95.3288 23.5668C95.3288 22.9323 95.2412 22.3665 95.0661 21.8693C94.8956 21.3722 94.6423 20.9792 94.3061 20.6903C93.9699 20.4015 93.5509 20.2571 93.049 20.2571C92.5424 20.2571 92.1162 20.4015 91.7706 20.6903C91.4297 20.9792 91.1716 21.3722 90.9964 21.8693C90.826 22.3665 90.7408 22.9323 90.7408 23.5668C90.7408 24.2012 90.826 24.767 90.9964 25.2642C91.1716 25.7614 91.4297 26.1544 91.7706 26.4432C92.1162 26.7273 92.5424 26.8693 93.049 26.8693ZM100.371 29V18.0909H103.305V19.9943H103.418C103.617 19.3172 103.951 18.8059 104.42 18.4602C104.888 18.1098 105.428 17.9347 106.039 17.9347C106.191 17.9347 106.354 17.9441 106.529 17.9631C106.704 17.982 106.858 18.008 106.991 18.0412V20.7259C106.849 20.6832 106.652 20.6454 106.401 20.6122C106.15 20.5791 105.921 20.5625 105.712 20.5625C105.267 20.5625 104.87 20.6596 104.519 20.8537C104.174 21.0431 103.899 21.3082 103.695 21.6491C103.496 21.9901 103.397 22.383 103.397 22.8281V29H100.371ZM110.883 29L107.914 18.0909H110.975L112.665 25.4205H112.765L114.526 18.0909H117.531L119.32 25.3778H119.413L121.075 18.0909H124.129L121.167 29H117.964L116.089 22.1392H115.954L114.079 29H110.883ZM128.853 29.206C128.157 29.206 127.537 29.0852 126.993 28.8438C126.448 28.5975 126.017 28.2353 125.7 27.7571C125.387 27.2741 125.231 26.6728 125.231 25.9531C125.231 25.3471 125.342 24.8381 125.565 24.4261C125.788 24.0142 126.091 23.6828 126.474 23.4318C126.858 23.1809 127.293 22.9915 127.781 22.8636C128.273 22.7358 128.789 22.6458 129.329 22.5938C129.964 22.5275 130.475 22.4659 130.863 22.4091C131.252 22.3475 131.533 22.2576 131.708 22.1392C131.884 22.0208 131.971 21.8456 131.971 21.6136V21.571C131.971 21.1212 131.829 20.7732 131.545 20.527C131.266 20.2808 130.868 20.1577 130.352 20.1577C129.807 20.1577 129.374 20.2784 129.052 20.5199C128.73 20.7566 128.517 21.0549 128.413 21.4148L125.615 21.1875C125.757 20.5246 126.036 19.9517 126.453 19.4688C126.869 18.9811 127.407 18.607 128.065 18.3466C128.728 18.0814 129.495 17.9489 130.366 17.9489C130.972 17.9489 131.552 18.0199 132.106 18.1619C132.665 18.304 133.16 18.5241 133.591 18.8224C134.026 19.1207 134.369 19.5043 134.62 19.973C134.871 20.437 134.997 20.9934 134.997 21.642V29H132.127V27.4872H132.042C131.867 27.8281 131.633 28.1288 131.339 28.3892C131.046 28.6449 130.693 28.8461 130.281 28.9929C129.869 29.1349 129.393 29.206 128.853 29.206ZM129.72 27.1179C130.165 27.1179 130.558 27.0303 130.899 26.8551C131.24 26.6752 131.507 26.4337 131.701 26.1307C131.895 25.8277 131.993 25.4844 131.993 25.1009V23.9432C131.898 24.0047 131.768 24.0616 131.602 24.1136C131.441 24.161 131.259 24.206 131.055 24.2486C130.851 24.2865 130.648 24.322 130.444 24.3551C130.241 24.3835 130.056 24.4096 129.89 24.4332C129.535 24.4853 129.225 24.5682 128.96 24.6818C128.695 24.7955 128.489 24.9493 128.342 25.1435C128.195 25.3329 128.122 25.5696 128.122 25.8537C128.122 26.2656 128.271 26.5805 128.569 26.7983C128.872 27.0114 129.256 27.1179 129.72 27.1179ZM137.344 29V18.0909H140.277V19.9943H140.391C140.59 19.3172 140.924 18.8059 141.392 18.4602C141.861 18.1098 142.401 17.9347 143.012 17.9347C143.163 17.9347 143.327 17.9441 143.502 17.9631C143.677 17.982 143.831 18.008 143.963 18.0412V20.7259C143.821 20.6832 143.625 20.6454 143.374 20.6122C143.123 20.5791 142.893 20.5625 142.685 20.5625C142.24 20.5625 141.842 20.6596 141.492 20.8537C141.146 21.0431 140.872 21.3082 140.668 21.6491C140.469 21.9901 140.37 22.383 140.37 22.8281V29H137.344ZM149.04 29.1776C148.211 29.1776 147.461 28.9645 146.788 28.5384C146.121 28.1075 145.59 27.4754 145.197 26.642C144.809 25.804 144.615 24.7765 144.615 23.5597C144.615 22.3097 144.816 21.2704 145.219 20.4418C145.621 19.6084 146.156 18.9858 146.824 18.5739C147.496 18.1572 148.232 17.9489 149.033 17.9489C149.643 17.9489 150.152 18.053 150.56 18.2614C150.972 18.465 151.303 18.7206 151.554 19.0284C151.81 19.3314 152.004 19.6297 152.136 19.9233H152.229V14.4545H155.247V29H152.264V27.2528H152.136C151.994 27.5559 151.793 27.8565 151.533 28.1548C151.277 28.4484 150.943 28.6922 150.531 28.8864C150.124 29.0805 149.627 29.1776 149.04 29.1776ZM149.999 26.7699C150.486 26.7699 150.898 26.6373 151.234 26.3722C151.575 26.1023 151.836 25.7259 152.016 25.2429C152.2 24.7599 152.293 24.1941 152.293 23.5455C152.293 22.8968 152.203 22.3333 152.023 21.8551C151.843 21.3769 151.582 21.0076 151.241 20.7472C150.901 20.4867 150.486 20.3565 149.999 20.3565C149.501 20.3565 149.082 20.4915 148.741 20.7614C148.401 21.0312 148.143 21.4053 147.967 21.8835C147.792 22.3617 147.705 22.9157 147.705 23.5455C147.705 24.1799 147.792 24.741 147.967 25.2287C148.147 25.7116 148.405 26.0904 148.741 26.3651C149.082 26.6349 149.501 26.7699 149.999 26.7699ZM85.7159 42.0909C85.6307 41.3712 85.285 40.8125 84.679 40.4148C84.0729 40.017 83.3295 39.8182 82.4489 39.8182C81.8049 39.8182 81.2415 39.9223 80.7585 40.1307C80.2803 40.339 79.9063 40.6255 79.6364 40.9901C79.3712 41.3546 79.2386 41.7689 79.2386 42.233C79.2386 42.6212 79.331 42.955 79.5156 43.2344C79.705 43.509 79.9465 43.7386 80.2401 43.9233C80.5336 44.1032 80.8414 44.2524 81.1634 44.3707C81.4853 44.4844 81.7812 44.5767 82.0511 44.6477L83.5284 45.0455C83.9072 45.1449 84.3286 45.2822 84.7926 45.4574C85.2614 45.6326 85.7088 45.8717 86.1349 46.1747C86.5658 46.473 86.9209 46.8565 87.2003 47.3253C87.4796 47.794 87.6193 48.3693 87.6193 49.0511C87.6193 49.8371 87.4134 50.5473 87.0014 51.1818C86.5942 51.8163 85.9976 52.3205 85.2116 52.6946C84.4304 53.0687 83.4811 53.2557 82.3636 53.2557C81.322 53.2557 80.42 53.0876 79.6577 52.7514C78.9001 52.4152 78.3035 51.9465 77.8679 51.3452C77.437 50.7438 77.1932 50.0455 77.1364 49.25H78.9545C79.0019 49.7992 79.1866 50.2538 79.5085 50.6136C79.8352 50.9687 80.2472 51.2339 80.7443 51.4091C81.2462 51.5795 81.786 51.6648 82.3636 51.6648C83.036 51.6648 83.6397 51.5559 84.1747 51.3381C84.7098 51.1155 85.1335 50.8078 85.446 50.4148C85.7585 50.017 85.9148 49.553 85.9148 49.0227C85.9148 48.5398 85.7798 48.1468 85.5099 47.8438C85.2401 47.5407 84.8849 47.2945 84.4446 47.1051C84.0043 46.9157 83.5284 46.75 83.017 46.608L81.2273 46.0966C80.0909 45.7699 79.1913 45.3035 78.5284 44.6974C77.8655 44.0914 77.5341 43.2983 77.5341 42.3182C77.5341 41.5038 77.7543 40.7936 78.1946 40.1875C78.6397 39.5767 79.2363 39.1032 79.9844 38.767C80.7372 38.4261 81.5777 38.2557 82.5057 38.2557C83.4432 38.2557 84.2765 38.4238 85.0057 38.7599C85.7348 39.0914 86.3125 39.5459 86.7386 40.1236C87.1695 40.7012 87.3968 41.357 87.4205 42.0909H85.7159ZM97.163 48.5398V42.0909H98.8391V53H97.163V51.1534H97.0494C96.7937 51.7074 96.396 52.1785 95.8562 52.5668C95.3164 52.9503 94.6346 53.142 93.8107 53.142C93.1289 53.142 92.5228 52.9929 91.9925 52.6946C91.4622 52.3916 91.0456 51.937 90.7425 51.331C90.4395 50.7202 90.288 49.9508 90.288 49.0227V42.0909H91.9641V48.9091C91.9641 49.7045 92.1867 50.339 92.6317 50.8125C93.0816 51.286 93.6545 51.5227 94.3505 51.5227C94.7672 51.5227 95.1909 51.4162 95.6218 51.2031C96.0574 50.9901 96.422 50.6634 96.7156 50.223C97.0138 49.7827 97.163 49.2216 97.163 48.5398ZM101.909 53V42.0909H103.585V53H101.909ZM102.761 40.2727C102.435 40.2727 102.153 40.1615 101.916 39.9389C101.684 39.7164 101.568 39.4489 101.568 39.1364C101.568 38.8239 101.684 38.5563 101.916 38.3338C102.153 38.1113 102.435 38 102.761 38C103.088 38 103.367 38.1113 103.599 38.3338C103.836 38.5563 103.955 38.8239 103.955 39.1364C103.955 39.4489 103.836 39.7164 103.599 39.9389C103.367 40.1615 103.088 40.2727 102.761 40.2727ZM111.4 42.0909V43.5114H105.746V42.0909H111.4ZM107.394 39.4773H109.07V49.875C109.07 50.3485 109.139 50.7036 109.276 50.9403C109.418 51.1723 109.598 51.3286 109.816 51.4091C110.038 51.4848 110.273 51.5227 110.519 51.5227C110.703 51.5227 110.855 51.5133 110.973 51.4943C111.092 51.4706 111.186 51.4517 111.257 51.4375L111.598 52.9432C111.485 52.9858 111.326 53.0284 111.123 53.071C110.919 53.1184 110.661 53.142 110.348 53.142C109.875 53.142 109.411 53.0402 108.956 52.8366C108.507 52.633 108.132 52.3229 107.834 51.9062C107.541 51.4896 107.394 50.964 107.394 50.3295V39.4773ZM118.377 53.2273C117.326 53.2273 116.42 52.9953 115.657 52.5312C114.9 52.0625 114.315 51.4091 113.903 50.571C113.496 49.7282 113.292 48.7481 113.292 47.6307C113.292 46.5133 113.496 45.5284 113.903 44.6761C114.315 43.8191 114.888 43.1515 115.622 42.6733C116.36 42.1903 117.222 41.9489 118.207 41.9489C118.775 41.9489 119.336 42.0436 119.89 42.233C120.444 42.4223 120.949 42.7301 121.403 43.1562C121.858 43.5777 122.22 44.1364 122.49 44.8324C122.76 45.5284 122.895 46.3854 122.895 47.4034V48.1136H114.485V46.6648H121.19C121.19 46.0492 121.067 45.5 120.821 45.017C120.579 44.5341 120.234 44.1529 119.784 43.8736C119.339 43.5942 118.813 43.4545 118.207 43.4545C117.539 43.4545 116.962 43.6203 116.474 43.9517C115.991 44.2784 115.619 44.7045 115.359 45.2301C115.099 45.7557 114.968 46.3191 114.968 46.9205V47.8864C114.968 48.7102 115.11 49.4086 115.395 49.9815C115.683 50.5497 116.083 50.983 116.595 51.2812C117.106 51.5748 117.7 51.7216 118.377 51.7216C118.818 51.7216 119.216 51.66 119.571 51.5369C119.931 51.4091 120.241 51.2197 120.501 50.9688C120.761 50.7131 120.963 50.3958 121.105 50.017L122.724 50.4716C122.554 51.0208 122.267 51.5038 121.865 51.9205C121.462 52.3324 120.965 52.6544 120.373 52.8864C119.781 53.1136 119.116 53.2273 118.377 53.2273Z" fill="white"/>
<circle cx="32" cy="32" r="32" fill="white"/>
<rect x="16" y="30.0101" width="30.87" height="6" rx="1" transform="rotate(-52.3627 16 30.0101)" fill="#27488E"/>
<rect x="24" y="54" width="30.8722" height="6" rx="1" transform="rotate(-52.3627 24 54)" fill="#27488E"/>
<rect x="25" y="36" width="15.4959" height="6" rx="1" transform="rotate(-52.3627 25 36)" fill="#27488E"/>
</svg>
