<svg width="64" height="64" viewBox="0 0 64 64" fill="none" xmlns="http://www.w3.org/2000/svg">
<path d="M64 32C64 49.6731 49.6731 64 32 64C14.3269 64 0 49.6731 0 32C0 14.3269 14.3269 0 32 0C49.6731 0 64 14.3269 64 32Z" fill="#27488E"/>
<path d="M16.7919 30.6208C16.3545 30.2835 16.2734 29.6556 16.6107 29.2182L34.2405 6.35632C34.5777 5.91897 35.2057 5.83783 35.643 6.17509L38.8106 8.61773C39.2479 8.95499 39.3291 9.58293 38.9918 10.0203L21.362 32.8822C21.0248 33.3196 20.3968 33.4007 19.9595 33.0634L16.7919 30.6208Z" fill="white"/>
<path d="M24.7919 54.6107C24.3545 54.2734 24.2734 53.6455 24.6107 53.2081L42.2418 30.3444C42.5791 29.9071 43.207 29.8259 43.6444 30.1632L46.8119 32.6058C47.2493 32.9431 47.3304 33.571 46.9932 34.0084L29.362 56.8721C29.0248 57.3094 28.3968 57.3906 27.9595 57.0533L24.7919 54.6107Z" fill="white"/>
<path d="M25.7919 36.6107C25.3545 36.2734 25.2734 35.6455 25.6107 35.2081L33.8521 24.5208C34.1894 24.0834 34.8173 24.0023 35.2547 24.3395L38.4222 26.7822C38.8596 27.1195 38.9407 27.7474 38.6035 28.1847L30.362 38.8721C30.0248 39.3094 29.3968 39.3906 28.9595 39.0533L25.7919 36.6107Z" fill="white"/>
</svg>
