<svg width="80" height="80" viewBox="0 0 80 80" fill="none" xmlns="http://www.w3.org/2000/svg">
<path d="M28.2809 27.8613V53.9339C28.2809 56.4712 29.9476 57.7398 33.2809 57.7398H34.5169V60.2959H18V57.7398L19.4045 57.683C22.6629 57.5694 24.2921 56.3197 24.2921 53.9339V23.2602C24.1423 22.3893 23.2622 21.8212 21.6517 21.5561H18V19H28.3933L52.7753 48.14V25.5324C52.7753 22.8815 51.2022 21.5561 48.0562 21.5561H46.4831V19H63V21.6129H61.5393C58.3558 21.6129 56.764 22.9194 56.764 25.5324V62L28.2809 27.8613Z" fill="black"/>
<path d="M40 40.0001V0.153904L33.2308 33.2308L40 40.0001Z" fill="white"/>
<path d="M40 40.0001L0 39.9999L33.2308 33.2308L40 40.0001Z" fill="white"/>
<path d="M40 40.0001L0.153839 40L33.2308 46.7692L40 40.0001Z" fill="white"/>
<path d="M40 40.0001V80L33.2308 46.7692L40 40.0001Z" fill="white"/>
<path d="M40 40.0001L40 79.8461L46.7692 46.7692L40 40.0001Z" fill="white"/>
<path d="M40 40.0001L80 40L46.7692 46.7692L40 40.0001Z" fill="white"/>
<path d="M40 40.0001L79.8462 39.9999L46.7692 33.2307L40 40.0001Z" fill="white"/>
<path d="M40 40.0001L40 0L46.7692 33.2307L40 40.0001Z" fill="white"/>
<path d="M40 40.0001L40 8.12305L34.5846 34.5846L40 40.0001Z" fill="#27488E"/>
<path d="M40 40.0001L8 40L34.5846 34.5846L40 40.0001Z" fill="#27488E" fill-opacity="0.5"/>
<path d="M40 40.0001L8.12308 40L34.5846 45.4153L40 40.0001Z" fill="#27488E"/>
<path d="M40 40.0001L40 72L34.5846 45.4153L40 40.0001Z" fill="#27488E" fill-opacity="0.5"/>
<path d="M40 40.0001L40 71.8769L45.4154 45.4154L40 40.0001Z" fill="#27488E"/>
<path d="M40 40.0001L72 40L45.4154 45.4154L40 40.0001Z" fill="#27488E" fill-opacity="0.5"/>
<path d="M40 40.0001L71.8769 40L45.4154 34.5846L40 40.0001Z" fill="#27488E"/>
<path d="M40 40.0001L40 8L45.4154 34.5846L40 40.0001Z" fill="#27488E" fill-opacity="0.5"/>
</svg>
