<svg width="256" height="256" viewBox="0 0 256 256" fill="none" xmlns="http://www.w3.org/2000/svg">
<path d="M135.651 125.535C158.796 125.535 177.558 144.297 177.558 167.442C177.558 190.586 158.796 209.349 135.651 209.349C128.565 209.349 121.89 207.59 116.038 204.486L90.1342 230.39C85.3208 235.203 77.5163 235.203 72.7029 230.39C67.8895 225.577 67.8895 217.772 72.7029 212.959L98.6073 187.055C95.5027 181.203 93.7441 174.528 93.7441 167.442C93.7441 144.297 112.507 125.535 135.651 125.535ZM135.651 145.256C123.398 145.256 113.465 155.189 113.465 167.442C113.465 179.695 123.398 189.628 135.651 189.628C147.904 189.628 157.837 179.695 157.837 167.442C157.837 155.189 147.904 145.256 135.651 145.256ZM62.8479 51.5814C77.3703 51.5814 89.1428 63.3538 89.1428 77.8758C89.1428 92.3983 77.3703 104.171 62.8479 104.171C48.3259 104.171 36.5535 92.3983 36.5535 77.8758C36.5535 63.3538 48.3259 51.5814 62.8479 51.5814ZM36.5535 137.286C33.0476 139.038 26.0358 153.062 26.0358 153.062C26.0358 153.062 22.5299 158.321 20.7767 179.356L5 174.098L10.2591 147.803C10.2591 147.803 20.7767 110.991 41.8121 110.991H78.2154C82.4948 100.27 92.163 81.4098 107.22 81.4098H149.291C164.348 81.4098 174.017 100.27 178.296 110.991H214.698C235.735 110.991 246.252 147.803 246.252 147.803L251.511 174.098L235.735 179.357C233.982 158.321 230.476 153.062 230.476 153.062C230.476 153.062 223.464 139.038 219.958 137.285L222.083 185.045C214.089 188.163 205.391 189.874 196.293 189.874C190.841 189.874 185.531 189.26 180.431 188.096C183.334 181.813 184.953 174.817 184.953 167.442C184.953 140.213 162.88 118.139 135.651 118.139C117.702 118.139 101.993 127.731 93.3704 142.069C91.8312 139.77 90.2969 137.862 89.1423 137.286L89.689 149.567C87.532 155.109 86.3488 161.137 86.3488 167.442C86.3488 173.854 87.5725 179.979 89.8 185.599C82.2128 188.365 74.0212 189.874 65.4772 189.874C54.3876 189.874 43.8916 187.332 34.541 182.797L36.5535 137.286ZM154.55 107.704L155.12 120.509C156.789 118.565 158.606 116.796 160.572 115.323C158.504 111.893 156.158 108.508 154.55 107.704ZM128.256 22C142.778 22 154.55 33.7724 154.55 48.2949C154.55 62.8169 142.778 74.5893 128.256 74.5893C113.734 74.5893 101.961 62.8169 101.961 48.2949C101.961 33.7724 113.734 22 128.256 22ZM101.961 107.704C100.353 108.508 98.0073 111.894 95.9391 115.324C97.9062 116.797 99.725 118.568 101.395 120.513L101.961 107.704ZM193.664 51.5814C208.186 51.5814 219.958 63.3538 219.958 77.8763C219.958 92.3983 208.186 104.171 193.664 104.171C179.141 104.171 167.369 92.3983 167.369 77.8763C167.369 63.3538 179.141 51.5814 193.664 51.5814Z" fill="white" stroke="white" stroke-width="0.673684" stroke-linejoin="round"/>
</svg>
