<svg width="271" height="271" viewBox="0 0 271 271" fill="none" xmlns="http://www.w3.org/2000/svg">
<path d="M213.134 95.0855C212.298 116.776 204.092 137.532 189.871 153.931C185.66 158.623 182.447 164.124 180.43 170.097V186.862C180.43 190.935 178.812 194.841 175.932 197.722C173.051 200.602 169.145 202.22 165.072 202.22H105.095C101.022 202.22 97.1152 200.602 94.2351 197.722C91.3549 194.841 89.7368 190.935 89.7368 186.862V170.097C87.7184 164.124 84.5063 158.624 80.2957 153.931C66.0628 137.537 57.8454 116.78 57 95.0855C56.9995 77.0647 63.2323 59.5985 74.6412 45.6491C86.0501 31.6997 101.933 22.126 119.596 18.5515C137.258 14.9771 155.614 17.6221 171.549 26.0379C187.484 34.4537 200.017 48.1222 207.023 64.7252C211.097 74.3391 213.186 84.6767 213.167 95.1179L213.134 95.0855ZM197.776 95.0855C197.776 78.4583 191.171 62.5121 179.414 50.7549C167.657 38.9977 151.711 32.3925 135.083 32.3925C118.456 32.3925 102.51 38.9977 90.7527 50.7549C78.9955 62.5121 72.3903 78.4583 72.3903 95.0855C72.3903 133.287 105.095 150.197 105.095 170.097V186.862H165.072V170.097C165.072 150.197 197.776 133.287 197.776 95.0855ZM172.751 220.245C172.753 221.255 172.556 222.255 172.171 223.189C171.786 224.122 171.221 224.971 170.507 225.686C169.794 226.4 168.947 226.967 168.014 227.354C167.082 227.741 166.082 227.94 165.072 227.94H105.095C103.058 227.94 101.105 227.131 99.6649 225.691C98.2248 224.251 97.4158 222.298 97.4158 220.261C97.4158 218.225 98.2248 216.272 99.6649 214.832C101.105 213.391 103.058 212.582 105.095 212.582H165.072C167.106 212.582 169.056 213.389 170.496 214.826C171.936 216.262 172.747 218.211 172.751 220.245ZM162.404 240.647C162.666 241.404 162.685 242.223 162.459 242.991C162.233 243.759 161.773 244.437 161.143 244.931C153.574 250.809 144.263 254 134.679 254C125.095 254 115.784 250.809 108.215 244.931C107.579 244.443 107.112 243.768 106.88 243.001C106.648 242.234 106.663 241.413 106.922 240.655C107.18 239.896 107.671 239.238 108.323 238.773C108.976 238.307 109.758 238.058 110.559 238.06H158.783C159.583 238.06 160.363 238.309 161.015 238.772C161.667 239.236 162.142 239.891 162.404 240.647Z" fill="white" stroke="white" stroke-width="0.008"/>
</svg>
